<svg xmlns="http://www.w3.org/2000/svg" width="23" height="38" viewBox="0 0 23 38" fill="none">
  <path d="M11.3144 1.30695C11.936 0.75929 12.8839 0.819205 13.4315 1.44078L22.3562 11.5699C22.9039 12.1915 22.844 13.1394 22.2224 13.687C21.6008 14.2347 20.653 14.1748 20.1053 13.5532L12.1722 4.54951L3.16856 12.4826C2.54699 13.0302 1.59913 12.9703 1.05147 12.3488C0.503804 11.7272 0.563719 10.7793 1.18529 10.2317L11.3144 1.30695ZM13.8031 2.52704C13.2046 11.9951 11.3226 19.8372 9.07275 25.6982C7.94822 28.6277 6.72543 31.0789 5.51305 32.9978C4.31596 34.8925 3.07359 36.3571 1.87527 37.2181L0.12472 34.7818C0.875056 34.2427 1.87289 33.1428 2.97684 31.3954C4.06549 29.6723 5.20457 27.4039 6.27201 24.6231C8.40612 19.0635 10.2285 11.522 10.8091 2.33778L13.8031 2.52704Z" fill="white"/>
</svg>