<svg
                      xmlns="http://www.w3.org/2000/svg"
                      width="44"
                      height="39"
                      viewBox="0 0 44 39"
                      fill="none"
                    >
                      <path
                        d="M22.038 38.9085C21.4301 38.9085 20.8221 38.6805 20.3661 38.3005C18.6183 36.7807 16.8705 35.3368 15.3506 34.0449C10.943 30.3212 7.06735 27.0535 4.4076 23.8618C1.36788 20.2142 0 16.8705 0 13.1468C0 9.57514 1.21589 6.23144 3.49568 3.79966C5.77547 1.36788 8.8912 7.86846e-06 12.3109 7.86846e-06C14.8187 7.86846e-06 17.1744 0.835932 19.2263 2.35579C20.0622 2.96374 20.7461 3.72367 21.4301 4.55959C21.734 4.93956 22.266 4.93956 22.57 4.55959C23.2539 3.72367 24.0138 3.03973 24.7737 2.35579C26.8256 0.759939 29.1814 7.86846e-06 31.6891 7.86846e-06C35.1088 7.86846e-06 38.2245 1.36788 40.5043 3.79966C42.7841 6.23144 44 9.57514 44 13.1468C44 16.8705 42.6321 20.2142 39.5924 23.7858C36.9326 26.9776 33.057 30.2453 28.6494 33.9689C27.1295 35.2608 25.3817 36.7047 23.6339 38.2245C23.2539 38.6805 22.6459 38.9085 22.038 38.9085Z"
                        fill="#C3073F"
                      />
                    </svg>