<svg xmlns="http://www.w3.org/2000/svg" width="354" height="354" viewBox="0 0 354 354" fill="none">
  <g filter="url(#filter0_d_872_752)">
    <path d="M170.366 279.716L170.366 279.716C170.366 283.121 173.12 285.875 176.525 285.876C179.914 285.871 182.67 283.118 182.676 279.716L170.366 279.716ZM170.366 279.716L170.366 199.354C170.366 199.353 170.366 199.353 170.366 199.353C170.371 195.95 173.127 193.197 176.521 193.197C179.915 193.197 182.671 195.95 182.676 199.352C182.676 199.353 182.676 199.353 182.676 199.354L182.676 279.714L170.366 279.716Z" fill="#BDBEC0" stroke="black" stroke-width="3"/>
    <path d="M124.654 189.098C124.551 189.142 124.444 189.189 124.332 189.238C123.025 189.81 121.16 190.681 118.946 191.869C114.513 194.249 108.712 197.886 103.205 202.921C92.2125 212.971 82.4604 228.501 86.9555 250.814C89.6089 263.983 97.2355 272.842 104.288 277.879C107.823 280.404 111.165 281.932 113.597 282.57C114.832 282.894 115.721 282.959 116.244 282.888C116.257 282.886 116.269 282.884 116.281 282.883C116.211 282.417 116.091 281.835 115.923 281.126C115.743 280.365 115.522 279.516 115.277 278.569C115.188 278.227 115.096 277.873 115.001 277.505C114.295 274.763 113.477 271.409 112.999 267.78C112.046 260.543 112.418 251.976 117.954 244.777L124.654 189.098ZM124.654 189.098L131.752 234.808C130.877 235.029 129.685 235.413 128.286 236.075C125.378 237.453 121.609 240.021 117.954 244.777L124.654 189.098ZM116.527 282.827C116.544 282.816 116.555 282.811 116.557 282.812C116.558 282.813 116.55 282.818 116.527 282.827Z" fill="#E0E1E2" stroke="black" stroke-width="3"/>
    <path d="M228.393 189.103C228.496 189.147 228.603 189.194 228.715 189.242C230.021 189.815 231.887 190.686 234.1 191.874C238.532 194.253 244.333 197.89 249.839 202.925C260.829 212.973 270.578 228.503 266.081 250.819L266.081 250.82C263.43 263.986 255.803 272.842 248.75 277.878C245.215 280.402 241.872 281.931 239.439 282.57C238.204 282.894 237.314 282.96 236.79 282.889C236.778 282.888 236.766 282.886 236.755 282.884C236.825 282.418 236.945 281.836 237.113 281.127C237.294 280.364 237.515 279.513 237.761 278.563C237.849 278.223 237.941 277.871 238.035 277.505C238.741 274.762 239.559 271.409 240.037 267.781C240.99 260.545 240.618 251.981 235.082 244.782L228.393 189.103ZM228.393 189.103L221.29 234.808C222.164 235.029 223.355 235.413 224.752 236.076C227.658 237.454 231.425 240.024 235.082 244.782L228.393 189.103ZM236.477 282.814C236.479 282.813 236.49 282.817 236.507 282.829C236.484 282.82 236.476 282.814 236.477 282.814Z" fill="#E0E1E2" stroke="black" stroke-width="3"/>
    <path d="M180.07 38.6975L180.01 40.0435L181.342 40.247C196.048 42.4933 208.916 54.9709 216.36 73.1649C204.258 75.8599 190.76 77.3921 176.52 77.3927H176.52C162.268 77.3976 148.798 75.8272 136.687 73.1185C144.131 54.9561 156.998 42.4888 171.688 40.2474L172.962 40.053L172.962 38.7645L172.962 38.3873C172.962 27.9274 173.527 18.4843 174.432 11.682C174.886 8.26998 175.417 5.58263 175.984 3.77872C176.173 3.17547 176.355 2.70961 176.52 2.36502C176.685 2.70939 176.867 3.17488 177.056 3.77762C177.622 5.58105 178.153 8.26782 178.606 11.6795C179.509 18.4811 180.071 27.924 180.068 38.3866L180.068 38.4201L180.07 38.4536C180.073 38.5334 180.073 38.6179 180.07 38.6975ZM176.926 1.71588C176.926 1.71675 176.92 1.72337 176.907 1.7331C176.919 1.71988 176.926 1.71501 176.926 1.71588ZM176.134 1.73302C176.121 1.72329 176.115 1.71668 176.115 1.71581C176.115 1.71495 176.122 1.71981 176.134 1.73302Z" fill="#E0E1E2" stroke="black" stroke-width="3"/>
    <path d="M176.52 92.4802L176.522 92.4802C192.308 92.4698 207.244 90.7021 220.809 87.5775C222.238 94.1336 223.046 101.086 223.046 108.332C223.043 121.104 219.224 155.046 215.382 185.925C213.464 201.336 211.547 215.942 210.109 226.696C209.39 232.073 208.791 236.487 208.371 239.556C208.166 241.06 208.003 242.241 207.891 243.055L193.729 243.055L193.729 199.346C193.729 189.855 186.011 182.138 176.521 182.138C167.03 182.137 159.307 189.861 159.307 199.352V199.352L159.312 243.055L145.15 243.055C145.038 242.241 144.875 241.06 144.67 239.555C144.25 236.486 143.65 232.073 142.931 226.696C141.492 215.942 139.574 201.335 137.656 185.925C133.812 155.045 129.993 121.104 129.995 108.333L129.995 108.332C129.996 101.108 130.799 94.1722 132.217 87.6367C145.779 90.7586 160.755 92.4749 176.52 92.4802ZM156.22 130.596C156.219 141.811 165.306 150.897 176.521 150.897C187.735 150.898 196.821 141.811 196.821 130.596C196.822 119.382 187.735 110.296 176.521 110.296C165.306 110.295 156.22 119.382 156.22 130.596Z" fill="#BDBEC0" stroke="black" stroke-width="3"/>
  </g>
  <defs>
    <filter id="filter0_d_872_752" x="80.3333" y="0.338379" width="192.371" height="295.038" filterUnits="userSpaceOnUse" color-interpolation-filters="sRGB">
      <feFlood flood-opacity="0" result="BackgroundImageFix"/>
      <feColorMatrix in="SourceAlpha" type="matrix" values="0 0 0 0 0 0 0 0 0 0 0 0 0 0 0 0 0 0 127 0" result="hardAlpha"/>
      <feOffset dy="4"/>
      <feGaussianBlur stdDeviation="2"/>
      <feComposite in2="hardAlpha" operator="out"/>
      <feColorMatrix type="matrix" values="0 0 0 0 0 0 0 0 0 0 0 0 0 0 0 0 0 0 0.25 0"/>
      <feBlend mode="normal" in2="BackgroundImageFix" result="effect1_dropShadow_872_752"/>
      <feBlend mode="normal" in="SourceGraphic" in2="effect1_dropShadow_872_752" result="shape"/>
    </filter>
  </defs>
</svg>