<svg xmlns="http://www.w3.org/2000/svg" width="73" height="30" viewBox="0 0 73 30" fill="none">
  <path d="M17.3664 26.4561L11.3643 28.175L10.9514 26.733L7.95221 27.5919C7.95163 27.5921 7.95106 27.5922 7.95048 27.5924C7.95043 27.5924 7.95038 27.5924 7.95033 27.5924C7.36825 27.7581 6.78381 27.7999 6.22244 27.7354L6.05137 29.2256C4.4877 29.0461 3.04978 28.2498 2.06925 27.0216L3.24152 26.0857C2.88908 25.6442 2.61513 25.1271 2.44788 24.547C2.28071 23.9632 2.23812 23.3776 2.30232 22.8155L0.812001 22.6453C0.990774 21.0799 1.78891 19.6411 3.02222 18.6609L3.95554 19.8352C4.39842 19.4832 4.91781 19.2093 5.50149 19.0422L5.50161 19.0422L8.50264 18.1827L8.08965 16.7407L14.0917 15.0217L14.5047 16.4638L20.5068 14.7448L20.0938 13.3028L26.0958 11.5839L26.5088 13.0259L32.5109 11.3069L32.0979 9.86492L38.1 8.14598L38.5129 9.58801L44.515 7.86907L44.102 6.42705L50.1041 4.70811L50.5171 6.15014L56.5191 4.4312L56.1061 2.98917L62.1082 1.27024L62.5212 2.71227L65.5203 1.85334C65.5207 1.85324 65.521 1.85314 65.5214 1.85304C66.1039 1.68718 66.6887 1.64533 67.2504 1.70992L67.4217 0.219746C68.9855 0.399596 70.4233 1.1968 71.4029 2.42705L70.2295 3.3614C70.5815 3.80359 70.8551 4.32178 71.0217 4.90358C71.1883 5.48535 71.2306 6.0698 71.1659 6.63136L72.6561 6.80287C72.4763 8.36519 71.6784 9.8027 70.447 10.7831L69.5127 9.60956C69.0703 9.96177 68.5518 10.2359 67.9697 10.4034C67.9695 10.4035 67.9694 10.4035 67.9692 10.4036L64.9699 11.2626L65.3829 12.7046L59.3808 14.4235L58.9679 12.9815L52.9658 14.7004L53.3788 16.1424L47.3767 17.8614L46.9637 16.4194L40.9617 18.1383L41.3747 19.5803L35.3726 21.2993L34.9596 19.8572L28.9575 21.5762L29.3705 23.0182L23.3685 24.7371L22.9555 23.2951L16.9534 25.014L17.3664 26.4561Z" stroke="#D9D9D9" stroke-width="3" stroke-dasharray="6 6"/>
</svg>