<svg xmlns="http://www.w3.org/2000/svg" width="39" height="77" viewBox="0 0 39 77" fill="none">
  <path d="M3.33966 39.6662C4.8533 40.4589 6.74968 41.7702 8.68526 43.9244L9.80102 42.9219C10.5516 43.7572 11.3034 44.7069 12.0398 45.7861L3.33966 39.6662ZM3.33966 39.6662L4.03557 38.3374C3.21094 37.9055 2.48219 37.6099 1.89341 37.4092L2.26648 35.6649L0.799651 35.3511L2.14279 29.071L3.60962 29.3847L4.95275 23.1045L3.48592 22.7908L4.82906 16.5106L6.29589 16.8243L7.63902 10.5441L6.17219 10.2304L7.51533 3.95024L8.98216 4.26395L9.25486 2.98886C9.57424 3.1521 9.93394 3.34041 10.3289 3.55394L11.0423 2.2344C12.4955 3.02 14.406 4.13366 16.5411 5.58293L15.6987 6.82403C17.2757 7.89443 18.9764 9.15099 20.7026 10.5963L21.6656 9.44612C23.2302 10.7561 24.8168 12.2184 26.3559 13.8352L25.2694 14.8695C26.6635 16.334 28.014 17.9253 29.2676 19.6446L30.4796 18.7609C31.7136 20.4533 32.8594 22.2692 33.8685 24.21L32.5376 24.902C33.4672 26.6899 34.2744 28.5845 34.9199 30.5874L36.3476 30.1273C36.9858 32.1075 37.4731 34.192 37.7734 36.3819L36.2873 36.5856C36.5563 38.5479 36.6691 40.6011 36.5963 42.7472L38.0955 42.798C38.026 44.8455 37.7941 46.9712 37.3769 49.176L35.9031 48.8972C35.715 49.8912 35.4877 50.9032 35.2187 51.9333L35.2186 51.9336C34.9494 52.9658 34.6416 53.9596 34.3002 54.916L35.7128 55.4204C34.9512 57.5537 34.0273 59.5119 32.9885 61.302L31.6911 60.5491C30.6034 62.4233 29.3841 64.1048 28.0923 65.6022L29.2281 66.582C27.7343 68.3136 26.1479 69.8094 24.5528 71.0813L23.6176 69.9086C21.8525 71.3161 20.0811 72.4335 18.4315 73.2794L19.116 74.6142C16.7542 75.8253 14.611 76.5181 13.0123 76.7392L12.8068 75.2534C12.3774 75.3128 12.0442 75.3251 11.7988 75.3138C11.893 74.9331 12.026 74.4698 12.1972 73.9141L10.7637 73.4725C10.9106 72.9956 11.0763 72.4792 11.2532 71.9279C11.5725 70.9325 11.9283 69.8234 12.2764 68.6272L13.7166 69.0462C14.1675 67.4968 14.6106 65.7864 14.9484 63.9775L13.4739 63.7022C13.7763 62.0829 13.9895 60.39 14.041 58.6676L15.5403 58.7124C15.5929 56.954 15.4862 55.1478 15.1433 53.3407L13.6696 53.6204C13.3616 51.9972 12.8514 50.3854 12.0798 48.8205M3.33966 39.6662L12.0798 48.8205M12.0798 48.8205L13.4252 48.1572C13.029 47.3535 12.5694 46.5618 12.0401 45.7865L12.0798 48.8205ZM11.3379 75.2401C11.3379 75.2401 11.3386 75.2404 11.3401 75.2412C11.3386 75.2405 11.3378 75.2401 11.3379 75.2401Z" stroke="#D9D9D9" stroke-width="3" stroke-dasharray="6 6"/>
</svg>