<svg xmlns="http://www.w3.org/2000/svg" width="59" height="67" viewBox="0 0 59 67" fill="none">
  <path d="M52.4511 41.0876C53.925 39.9702 55.355 38.8387 56.7392 37.6961L55.7842 36.5394C56.0302 36.3363 56.2746 36.133 56.5176 35.9293C56.0931 35.576 55.6662 35.2303 55.2373 34.8925L56.1654 33.7141C54.3071 32.2506 52.4077 30.9281 50.4828 29.7554L49.7024 31.0364C47.7326 29.8364 45.7403 28.8005 43.7434 27.9371L44.3387 26.5603C42.158 25.6173 39.9659 24.8706 37.784 24.332L37.4245 25.7883C35.2137 25.2425 33.0235 24.9216 30.8774 24.8347L30.9381 23.3359C28.5915 23.2409 26.2842 23.4118 24.0448 23.8645L24.342 25.3347C23.2721 25.551 22.22 25.835 21.1886 26.1885L19.9141 26.6253L19.3434 25.4048C19.3381 25.3933 19.3324 25.3815 19.3264 25.3694L20.6705 24.7035C20.6488 24.6599 20.6261 24.6163 20.6025 24.5736L19.2888 25.2975C19.2871 25.2945 19.2855 25.2916 19.2839 25.2887C19.279 25.2799 19.2742 25.2714 19.2694 25.2632L19.2525 25.2342L19.237 25.2046C18.8451 24.4545 18.4529 23.7142 18.0612 22.9847L19.3827 22.2751C18.5639 20.7504 17.7473 19.2725 16.9402 17.8522L15.6361 18.5932C14.7767 17.0807 13.9289 15.6349 13.1019 14.269L14.3851 13.4922C13.4595 11.9633 12.5589 10.532 11.696 9.21611L10.4416 10.0387C9.43393 8.50215 8.48316 7.13267 7.60995 5.95757L8.81392 5.06289C7.56153 3.37753 6.45315 2.06665 5.54611 1.21153L4.53548 2.28352C4.53595 2.28666 4.53642 2.28981 4.53689 2.29297L4.52488 2.29477L4.51714 2.30296C4.51499 2.30093 4.51284 2.29891 4.51069 2.29689L3.05338 2.51481C3.23776 3.7478 3.68139 5.40625 4.35023 7.39661L5.77209 6.91882C6.23847 8.30669 6.82017 9.86916 7.50652 11.5737L6.11509 12.134C6.7029 13.5938 7.36402 15.1504 8.09094 16.7831L9.46126 16.1729C10.1108 17.6318 10.8139 19.1532 11.5652 20.7222L10.2123 21.37C10.9178 22.8436 11.6651 24.3578 12.4497 25.9003L13.7867 25.2204C14.162 25.9584 14.546 26.7031 14.9381 27.453L14.9721 27.518L13.6428 28.213L13.7107 28.3428L15.04 27.6478L15.0739 27.7127L15.6709 28.8545L14.6322 29.617C13.7543 30.2614 12.9214 30.9626 12.134 31.7169L11.0963 30.6338C9.44823 32.2127 7.99232 34.008 6.73189 35.9874L7.99714 36.7931C6.84458 38.603 5.85861 40.5826 5.04508 42.7072L3.64426 42.1708C2.84132 44.2678 2.20312 46.4916 1.73219 48.8179L3.20237 49.1155C2.77107 51.246 2.48369 53.471 2.34385 55.7708L0.846611 55.6797C0.70991 57.9278 0.710585 60.2401 0.850481 62.5988L2.34785 62.51C2.38012 63.0541 2.41999 63.6009 2.4675 64.1502C2.77381 64.0671 3.08068 63.9826 3.3881 63.8968L3.79153 65.3415C5.52085 64.8586 7.26678 64.3326 9.02591 63.7629L8.56377 62.3359C10.2562 61.7878 11.9613 61.1987 13.6759 60.5682L14.1937 61.976C15.8839 61.3544 17.583 60.693 19.2882 59.9913L18.7173 58.6042C20.3675 57.9251 22.0235 57.2078 23.6827 56.4519L24.3046 57.8169C25.947 57.0686 27.5923 56.2829 29.2379 55.4593L28.5665 54.1179C29.3699 53.7159 30.1733 53.3047 30.9765 52.8844L30.9769 52.8842C31.7802 52.4641 32.5764 52.0387 33.3653 51.6083L34.0838 52.925C35.6985 52.044 37.2831 51.142 38.836 50.2213L38.071 48.931C39.6393 48.0012 41.1748 47.0521 42.6759 46.0864L43.4875 47.3478C45.0381 46.3502 46.5525 45.3348 48.0292 44.304L47.1707 43.074C48.669 42.0282 50.1277 40.9667 51.5449 39.8923L52.4511 41.0876Z" stroke="#D9D9D9" stroke-width="3" stroke-dasharray="6 6"/>
</svg>