<svg width="216" height="235" viewBox="0 0 216 235" fill="none" xmlns="http://www.w3.org/2000/svg">
<path d="M22.3663 143.456L16.3642 145.175L15.9512 143.733L12.9521 144.592C12.9515 144.592 12.9509 144.592 12.9504 144.592C12.9503 144.592 12.9503 144.592 12.9502 144.592C12.3681 144.758 11.7837 144.8 11.2223 144.735L11.0512 146.226C9.48758 146.046 8.04965 145.25 7.06913 144.022L8.2414 143.086C7.88896 142.644 7.61501 142.127 7.44776 141.547C7.28059 140.963 7.238 140.378 7.30219 139.815L5.81188 139.645C5.99065 138.08 6.78879 136.641 8.0221 135.661L8.95542 136.835C9.3983 136.483 9.91768 136.209 10.5014 136.042L10.5015 136.042L13.5025 135.183L13.0895 133.741L19.0916 132.022L19.5046 133.464L25.5066 131.745L25.0937 130.303L31.0957 128.584L31.5087 130.026L37.5108 128.307L37.0978 126.865L43.0998 125.146L43.5128 126.588L49.5149 124.869L49.1019 123.427L55.104 121.708L55.5169 123.15L61.519 121.431L61.106 119.989L67.1081 118.27L67.5211 119.712L70.5202 118.853C70.5206 118.853 70.5209 118.853 70.5212 118.853C71.1038 118.687 71.6886 118.645 72.2502 118.71L72.4216 117.22C73.9854 117.4 75.4232 118.197 76.4028 119.427L75.2293 120.361C75.5814 120.804 75.855 121.322 76.0216 121.904C76.1882 122.485 76.2304 123.07 76.1658 123.631L77.656 123.803C77.4761 125.365 76.6783 126.803 75.4469 127.783L74.5126 126.61C74.0702 126.962 73.5517 127.236 72.9696 127.403C72.9694 127.403 72.9692 127.404 72.9691 127.404L69.9698 128.263L70.3828 129.705L64.3807 131.424L63.9677 129.981L57.9657 131.7L58.3787 133.142L52.3766 134.861L51.9636 133.419L45.9615 135.138L46.3745 136.58L40.3725 138.299L39.9595 136.857L33.9574 138.576L34.3704 140.018L28.3683 141.737L27.9554 140.295L21.9533 142.014L22.3663 143.456Z" stroke="#D9D9D9" stroke-width="3" stroke-dasharray="6 6"/>
<path d="M151.243 100.36L151.243 100.362C151.52 101.325 151.804 102.282 152.095 103.232L153.529 102.792C154.115 104.7 154.73 106.58 155.373 108.43L153.957 108.923C154.619 110.827 155.31 112.701 156.029 114.542L157.426 113.996C158.153 115.858 158.908 117.687 159.689 119.48L158.314 120.079C159.121 121.932 159.955 123.747 160.816 125.524L162.166 124.871C163.038 126.674 163.937 128.436 164.86 130.156L163.538 130.865C163.771 131.3 164.006 131.732 164.242 132.162C163.414 132.603 162.571 133.031 161.715 133.447L162.369 134.796C159.771 136.056 157.049 137.195 154.21 138.189L153.715 136.773C152.365 137.245 150.988 137.683 149.584 138.085C148.784 138.314 147.859 138.557 146.817 138.812L147.174 140.269C145.507 140.678 143.565 141.113 141.396 141.57L141.088 140.102C139.306 140.477 137.367 140.866 135.299 141.267L135.584 142.74C133.735 143.098 131.785 143.465 129.751 143.839L129.48 142.363C127.611 142.706 125.671 143.055 123.675 143.408L123.935 144.885C122.036 145.22 120.085 145.559 118.097 145.899L117.844 144.421C115.93 144.748 113.981 145.078 112.007 145.407L112.254 146.887C110.328 147.208 108.378 147.53 106.416 147.851L106.174 146.371C104.236 146.688 102.285 147.004 100.332 147.317L100.57 148.798C98.6201 149.112 96.6681 149.422 94.7241 149.73L94.4899 148.248C92.528 148.558 90.5742 148.865 88.6388 149.167L88.8699 150.649C86.8961 150.956 84.9415 151.259 83.0171 151.555L82.7889 150.073C80.8072 150.378 78.8575 150.676 76.9517 150.966L77.1772 152.449C75.1658 152.755 73.2033 153.051 71.3037 153.337L71.0805 151.854C69.0608 152.158 67.1122 152.449 65.2516 152.726L65.4724 154.21C63.3943 154.519 61.4259 154.81 59.5908 155.081L59.3722 153.597C57.224 153.913 55.2586 154.201 53.5135 154.455L53.7298 155.939C51.3167 156.291 49.325 156.578 47.8542 156.79L47.6407 155.305C47.0166 155.395 46.4863 155.471 46.0576 155.532L45.5101 153.621L44.0681 154.034L42.2533 147.697L43.6953 147.284L43.2009 145.558L44.5726 145.165L44.1596 143.723L49.787 142.111L50.2 143.553L55.8274 141.941L55.4144 140.499L61.0418 138.888L61.4548 140.33L67.0822 138.718L66.6692 137.276L72.2966 135.664L72.7095 137.107L75.5232 136.301C76.4012 136.049 77.2359 135.717 78.021 135.313L77.3351 133.979C78.7853 133.233 80.0419 132.217 81.059 131.013L82.2049 131.981C83.3642 130.608 84.2459 129.019 84.7966 127.309L83.3688 126.849C83.852 125.349 84.049 123.745 83.9139 122.12L85.4087 121.995C85.3356 121.116 85.1759 120.231 84.9245 119.353C84.6731 118.475 84.3403 117.64 83.9364 116.855L82.6025 117.541C81.8566 116.091 80.8398 114.834 79.635 113.816L80.6028 112.67C79.23 111.511 77.6401 110.629 75.9299 110.078L75.4699 111.506C73.969 111.022 72.3644 110.825 70.7392 110.96L70.6151 109.465C69.735 109.538 68.8505 109.698 67.9723 109.949L67.9721 109.949L65.1588 110.755L65.572 112.197L59.9455 113.81L59.5323 112.368L53.9058 113.98L54.319 115.422L48.6925 117.034L48.2793 115.592L42.6528 117.204L43.066 118.646L37.4395 120.258L37.0263 118.816L35.6552 119.209L35.1609 117.483L33.7188 117.896L31.9041 111.559L33.3461 111.146L32.7985 109.234C33.1947 109.059 33.6848 108.843 34.2619 108.589L33.657 107.216C35.0167 106.617 36.8587 105.806 39.0919 104.827L39.6943 106.201C41.3093 105.493 43.129 104.696 45.1189 103.827L44.5187 102.452C46.2186 101.71 48.0427 100.915 49.9695 100.077L50.5676 101.453C52.2927 100.703 54.1001 99.9183 55.9744 99.1068L55.3784 97.7303C57.1413 96.967 58.9633 96.1798 60.8317 95.3745L61.4254 96.7519C63.1958 95.9889 65.0077 95.2097 66.8503 94.4193L66.259 93.0408C68.0485 92.2732 69.8669 91.4952 71.7043 90.7113L72.2929 92.091C74.0946 91.3224 75.9144 90.5482 77.743 89.7727L77.1574 88.3918C78.9693 87.6234 80.7899 86.8538 82.6101 86.0872L83.1923 87.4696C85.0151 86.7019 86.8373 85.9373 88.6497 85.18L88.0714 83.796C89.9056 83.0296 91.73 82.2707 93.5348 81.5237L94.1084 82.9097C95.9572 82.1446 97.7853 81.392 99.5825 80.6569L99.0146 79.2685C100.882 78.5048 102.715 77.7598 104.505 77.0387L105.065 78.43C106.946 77.6722 108.776 76.9412 110.544 76.2431L109.992 74.848C111.916 74.0882 113.765 73.3671 115.523 72.6927L116.061 74.0931C118.028 73.3384 119.879 72.6431 121.589 72.0181L121.074 70.6093C123.156 69.8486 125.034 69.1905 126.665 68.655L127.133 70.0801C128.152 69.7456 129.066 69.462 129.866 69.233L129.866 69.233C131.265 68.8322 132.662 68.4761 134.054 68.1627L133.724 66.6993C136.651 66.04 139.555 65.5658 142.418 65.2584L142.578 66.7498C143.52 66.6486 144.458 66.5659 145.39 66.5009C145.417 66.9906 145.447 67.4818 145.479 67.9744L146.976 67.8754C147.105 69.8228 147.278 71.794 147.495 73.786L146.004 73.9486C146.218 75.9117 146.474 77.8942 146.774 79.8932L148.258 79.6706C148.548 81.6053 148.879 83.5561 149.252 85.5203L147.778 85.7999C148.147 87.7423 148.556 89.6972 149.005 91.6623L150.467 91.3281C150.904 93.2388 151.379 95.1594 151.894 97.0876L150.445 97.4745C150.701 98.4347 150.967 99.3967 151.243 100.36ZM113.654 119.568C112.214 118.35 110.999 116.845 110.107 115.107L108.773 115.791C108.299 114.869 107.909 113.888 107.613 112.856C107.318 111.823 107.13 110.784 107.043 109.751L108.538 109.626C108.374 107.679 108.608 105.758 109.185 103.963L107.757 103.504C108.403 101.492 109.44 99.6232 110.805 98.0098L111.95 98.9784C113.168 97.5386 114.673 96.3235 116.411 95.4316L115.727 94.097C116.649 93.6236 117.63 93.2333 118.663 92.9377C119.695 92.6421 120.734 92.454 121.767 92.3673L121.893 93.862C123.839 93.6987 125.76 93.9327 127.555 94.5096L128.014 93.0815C130.026 93.728 131.895 94.7648 133.508 96.1293L132.54 97.2746C133.979 98.4924 135.195 99.9976 136.086 101.736L137.421 101.051C137.894 101.974 138.285 102.955 138.58 103.987C138.876 105.019 139.064 106.058 139.151 107.091L137.656 107.217C137.819 109.164 137.585 111.084 137.008 112.879L138.437 113.338C137.79 115.35 136.753 117.219 135.389 118.833L134.243 117.864C133.026 119.304 131.52 120.519 129.782 121.411L130.467 122.745C129.544 123.219 128.563 123.609 127.531 123.905C126.499 124.2 125.46 124.388 124.427 124.475L124.301 122.98C122.354 123.144 120.434 122.91 118.639 122.333L118.18 123.761C116.168 123.114 114.299 122.078 112.686 120.713L113.654 119.568Z" stroke="#D9D9D9" stroke-width="3" stroke-dasharray="6 6"/>
</svg>
