<svg xmlns="http://www.w3.org/2000/svg" width="39" height="76" viewBox="0 0 39 76" fill="none">
  <path d="M32.1859 2.9045C32.6024 2.73689 32.981 2.59036 33.3167 2.46418L33.4437 3.76187L34.9366 3.61578L35.5622 10.008L34.0693 10.1541L34.6949 16.5464L36.1877 16.4003L36.8133 22.7926L35.3204 22.9387L35.946 29.3309L37.4389 29.1848L38.0644 35.5771L36.5716 35.7232L36.7453 37.4985C36.1376 37.6312 35.3801 37.8422 34.5121 38.1777L35.0528 39.5768C33.4583 40.193 31.4248 41.2812 29.2585 43.2022L28.2632 42.0799C27.4226 42.8254 26.5681 43.6844 25.7145 44.6741C25.1011 45.3847 24.5552 46.1196 24.0708 46.8734L25.3328 47.6842C24.3898 49.152 23.7011 50.6961 23.2121 52.2743L21.7793 51.8302C21.2349 53.587 20.9251 55.3696 20.7789 57.1227L22.2737 57.2474C22.1305 58.9646 22.1513 60.6708 22.269 62.3138L20.7728 62.421C20.9042 64.2565 21.1515 66.0059 21.4246 67.5963L22.903 67.3424C23.1144 68.5737 23.3436 69.7187 23.5491 70.7457C23.6621 71.3104 23.7679 71.8394 23.8598 72.3274L22.3857 72.6048C22.4935 73.1778 22.5736 73.6541 22.6244 74.0434C22.3796 74.0272 22.05 73.9777 21.6298 73.8704L21.2587 75.3238C19.695 74.9246 17.6433 73.9945 15.4328 72.5242L16.2635 71.2752C14.72 70.2485 13.0859 68.9381 11.4909 67.3399L10.4292 68.3996C8.98789 66.9555 7.5804 65.2899 6.29147 63.4004L7.53061 62.5551C6.41602 60.9212 5.39419 59.1126 4.52477 57.1273L3.15075 57.729C2.32043 55.833 1.62317 53.7828 1.1067 51.5771L2.5672 51.2351C2.33566 50.2462 2.14182 49.2239 1.9905 48.1678C1.83952 47.1139 1.72792 46.0826 1.65325 45.0737L0.157345 45.1844C-0.00825966 42.9465 0.00136864 40.808 0.163606 38.7657L1.6589 38.8845C1.82894 36.7439 2.17299 34.7165 2.66205 32.797L1.20849 32.4267C1.75425 30.2847 2.47402 28.2686 3.33191 26.373L4.69847 26.9914C5.56617 25.0742 6.58236 23.2828 7.70804 21.6112L6.46385 20.7733C7.68576 18.9588 9.02937 17.2839 10.4467 15.7415L11.5512 16.7565C12.991 15.1897 14.5126 13.7609 16.0632 12.463L15.1004 11.3127C16.8123 9.87983 18.5538 8.60585 20.2564 7.48076L21.0834 8.73219C22.9618 7.49084 24.7935 6.43408 26.4813 5.54832L25.7842 4.22012C28.0694 3.02086 30.0933 2.12971 31.6259 1.51295L32.1859 2.9045ZM23.0884 74.0216C23.0884 74.0217 23.0877 74.022 23.086 74.0225C23.0875 74.0219 23.0884 74.0216 23.0884 74.0216Z" stroke="#D9D9D9" stroke-width="3" stroke-dasharray="6 6"/>
</svg>