<svg xmlns="http://www.w3.org/2000/svg" width="136" height="94" viewBox="0 0 136 94" fill="none">
  <path d="M120.243 36.3603L120.243 36.3617C120.52 37.3253 120.804 38.2821 121.095 39.232L122.529 38.7919C123.115 40.7002 123.73 42.5801 124.373 44.4304L122.957 44.9229C123.619 46.8273 124.31 48.7007 125.029 50.5417L126.426 49.9962C127.153 51.8583 127.908 53.6867 128.689 55.48L127.314 56.079C128.121 57.9316 128.956 59.7472 129.816 61.5244L131.166 60.8709C132.038 62.6736 132.937 64.4359 133.86 66.156L132.538 66.865C132.771 67.3 133.006 67.7323 133.242 68.162C132.414 68.6029 131.571 69.0314 130.715 69.4465L131.37 70.7962C128.771 72.0561 126.05 73.1954 123.21 74.1887L122.715 72.7728C121.365 73.2449 119.988 73.6834 118.584 74.0854C117.784 74.3143 116.859 74.5571 115.817 74.8124L116.174 76.2693C114.507 76.6779 112.565 77.1133 110.397 77.5696L110.088 76.1017C108.306 76.4766 106.367 76.8661 104.299 77.2671L104.584 78.7397C102.736 79.098 100.785 79.4651 98.7509 79.8385L98.48 78.3632C96.6109 78.7064 94.671 79.0551 92.6746 79.4075L92.9354 80.8847C91.0356 81.2201 89.0854 81.5587 87.0972 81.8991L86.844 80.4206C84.9301 80.7482 82.9808 81.0775 81.0073 81.4071L81.2543 82.8866C79.3277 83.2083 77.3782 83.5302 75.4164 83.851L75.1743 82.3707C73.2358 82.6877 71.2851 83.0036 69.3323 83.3173L69.5702 84.7983C67.6202 85.1115 65.6682 85.4224 63.7242 85.7298L63.49 84.2482C61.5281 84.5584 59.5743 84.8649 57.6389 85.1666L57.87 86.6488C55.8962 86.9565 53.9416 87.2591 52.0172 87.5553L51.789 86.0727C49.8074 86.3777 47.8576 86.6759 45.9518 86.9658L46.1774 88.4488C44.1659 88.7547 42.2034 89.0515 40.3038 89.3372L40.0807 87.8539C38.0609 88.1577 36.1123 88.4492 34.2517 88.7261L34.4726 90.2098C32.3944 90.5191 30.426 90.8103 28.5909 91.0806L28.3723 89.5966C26.2242 89.913 24.2587 90.2007 22.5137 90.4549L22.7299 91.9392C20.3168 92.2908 18.3251 92.5784 16.8544 92.7899L16.6409 91.3052C16.0167 91.3949 15.4864 91.471 15.0577 91.5323L14.5102 89.6205L13.0682 90.0335L11.2534 83.6968L12.6955 83.2838L12.201 81.5575L13.5727 81.1647L13.1597 79.7227L18.7871 78.111L19.2001 79.553L24.8275 77.9414L24.4145 76.4994L30.0419 74.8877L30.4549 76.3298L36.0823 74.7181L35.6693 73.2761L41.2967 71.6645L41.7097 73.1065L44.5234 72.3007C45.4013 72.0493 46.236 71.7167 47.0211 71.313L46.3352 69.979C47.7854 69.2334 49.042 68.2171 50.0591 67.013L51.205 67.9809C52.3643 66.6084 53.246 65.0189 53.7967 63.3089L52.3689 62.8491C52.8521 61.3487 53.0491 59.7446 52.914 58.1196L54.4088 57.9954C54.3357 57.1156 54.1761 56.2314 53.9247 55.3535C53.6732 54.4752 53.3404 53.6403 52.9365 52.8549L51.6026 53.541C50.8567 52.0907 49.8399 50.8338 48.6351 49.8164L49.6029 48.6704C48.2301 47.5111 46.6403 46.6292 44.93 46.0782L44.47 47.5059C42.9691 47.0224 41.3646 46.8251 39.7393 46.96L39.6152 45.4651C38.7351 45.5382 37.8506 45.6978 36.9724 45.9494L36.9722 45.9494L34.159 46.7555L34.5721 48.1974L28.9456 49.8096L28.5325 48.3676L22.906 49.9797L23.3191 51.4217L17.6926 53.0338L17.2795 51.5918L11.653 53.204L12.0661 54.6459L6.4396 56.2581L6.02644 54.8161L4.65535 55.2089L4.16099 53.4828L2.71896 53.8958L0.904187 47.5591L2.34621 47.1461L1.79866 45.2342C2.19484 45.0593 2.68496 44.843 3.26206 44.5886L2.6571 43.216C4.01679 42.6168 5.85879 41.8063 8.09203 40.827L8.69444 42.2007C10.3094 41.4925 12.1291 40.696 14.1191 39.827L13.5188 38.4524C15.2187 37.7101 17.0428 36.9151 18.9696 36.0773L19.5678 37.4528C21.2928 36.7027 23.1002 35.9183 24.9745 35.1068L24.3785 33.7303C26.1414 32.967 27.9634 32.1798 29.8318 31.3745L30.4255 32.7519C32.1959 31.9889 34.0078 31.2097 35.8505 30.4193L35.2592 29.0408C37.0486 28.2732 38.867 27.4952 40.7044 26.7113L41.293 28.091C43.0947 27.3224 44.9145 26.5482 46.7431 25.7727L46.1575 24.3918C47.9695 23.6234 49.7901 22.8538 51.6102 22.0872L52.1924 23.4696C54.0152 22.7019 55.8374 21.9373 57.6498 21.18L57.0715 19.796C58.9058 19.0296 60.7301 18.2707 62.5349 17.5237L63.1085 18.9097C64.9573 18.1446 66.7854 17.392 68.5826 16.6569L68.0147 15.2685C69.8817 14.5048 71.7156 13.7598 73.5049 13.0387L74.0656 14.43C75.9459 13.6722 77.7763 12.9412 79.5437 12.2431L78.9926 10.848C80.916 10.0882 82.7653 9.36714 84.5235 8.69266L85.0607 10.0931C87.0281 9.33844 88.8788 8.64311 90.5891 8.01814L90.0743 6.60925C92.156 5.84858 94.0339 5.19048 95.665 4.65496L96.1329 6.0801C97.1518 5.74559 98.0657 5.46197 98.8657 5.23305L98.8659 5.23298C100.266 4.8322 101.662 4.47611 103.054 4.16267L102.724 2.69934C105.651 2.04005 108.556 1.5658 111.418 1.25837L111.579 2.74979C112.52 2.64864 113.458 2.56591 114.39 2.50092C114.417 2.99059 114.447 3.48178 114.479 3.97443L115.976 3.87539C116.105 5.82278 116.278 7.79401 116.495 9.78596L115.004 9.94858C115.218 11.9117 115.475 13.8942 115.775 15.8932L117.258 15.6706C117.548 17.6053 117.88 19.5561 118.252 21.5203L116.779 21.7999C117.147 23.7423 117.556 25.6972 118.005 27.6623L119.467 27.3281C119.904 29.2388 120.379 31.1594 120.894 33.0876L119.445 33.4745C119.701 34.4347 119.967 35.3967 120.243 36.3603ZM82.6543 55.5678C81.2144 54.35 79.9993 52.8448 79.1074 51.1066L77.7728 51.7914C77.2994 50.8688 76.9091 49.8878 76.6135 48.8555C76.3179 47.8233 76.1297 46.7843 76.043 45.751L77.5377 45.6255C77.3743 43.6787 77.6083 41.7584 78.1852 39.9631L76.7571 39.5042C77.4036 37.4924 78.4405 35.6232 79.805 34.0098L80.9504 34.9784C82.1681 33.5386 83.6734 32.3235 85.4116 31.4316L84.7268 30.097C85.6494 29.6236 86.6304 29.2333 87.6627 28.9377C88.695 28.6421 89.7339 28.454 90.7672 28.3673L90.8927 29.862C92.8395 29.6987 94.7597 29.9327 96.5551 30.5096L97.014 29.0815C99.0258 29.728 100.895 30.7648 102.508 32.1293L101.54 33.2746C102.98 34.4924 104.195 35.9976 105.087 37.7358L106.421 37.051C106.895 37.9736 107.285 38.9546 107.581 39.9869C107.876 41.0192 108.064 42.0581 108.151 43.0914L106.656 43.2169C106.82 45.1637 106.586 47.0839 106.009 48.8793L107.437 49.3382C106.79 51.35 105.753 53.2191 104.389 54.8326L103.244 53.8639C102.026 55.3038 100.521 56.5189 98.7824 57.4108L99.4672 58.7454C98.5446 59.2188 97.5636 59.6091 96.5313 59.9047C95.499 60.2003 94.4601 60.3884 93.4268 60.4751L93.3013 58.9804C91.3545 59.1437 89.4343 58.9097 87.6389 58.3328L87.18 59.7609C85.1682 59.1144 83.2991 58.0776 81.6856 56.7131L82.6543 55.5678Z" stroke="#D9D9D9" stroke-width="3" stroke-dasharray="6 6"/>
</svg>