<svg xmlns="http://www.w3.org/2000/svg" width="53" height="53" viewBox="0 0 53 53" fill="none">
  <path d="M51.7236 19.6019L51.724 19.6019C52.0894 19.6581 52.3459 19.9208 52.4516 20.2865C52.5594 20.6593 52.4853 21.0644 52.256 21.3281L40.2817 33.6617L40.1063 33.8424L40.1471 34.0909L42.9827 51.3702L42.986 51.3905L42.991 51.4105C43.0697 51.725 42.9353 52.0318 42.6575 52.2323C42.3782 52.4339 42.0133 52.4816 41.7039 52.3135C41.7036 52.3133 41.7033 52.3131 41.703 52.313L26.8859 44.1769L26.646 44.0452L26.4058 44.1763L11.4959 52.3131L11.4765 52.3237L11.4581 52.3359C11.0926 52.5795 10.752 52.527 10.5031 52.3405C10.2378 52.1415 10.0633 51.7761 10.1254 51.3676C10.1255 51.3668 10.1256 51.366 10.1257 51.3653L12.9606 34.0909L13.0014 33.8424L12.8259 33.6617L0.843108 21.3193L0.831328 21.3072L0.818756 21.2959C0.207869 20.7464 0.532886 19.7194 1.29124 19.6021C1.29154 19.602 1.29184 19.602 1.29213 19.6019L17.7552 17.1337L18.0187 17.0942L18.1328 16.8535L25.631 1.04227C25.9965 0.319093 26.9287 0.319243 27.2939 1.04272L34.7923 16.7631L34.9061 17.0016L35.1672 17.042L51.7236 19.6019Z" fill="url(#paint0_linear_151_463)" stroke="#DDAC17"/>
  <defs>
    <linearGradient id="paint0_linear_151_463" x1="-28.0513" y1="32.9128" x2="84.154" y2="32.9128" gradientUnits="userSpaceOnUse">
      <stop stop-color="#FFF98A"/>
      <stop offset="0.9999" stop-color="#ECC440"/>
      <stop offset="1" stop-color="#ECC440" stop-opacity="0"/>
    </linearGradient>
  </defs>
</svg>