<svg xmlns="http://www.w3.org/2000/svg" width="66" height="85" viewBox="0 0 66 85" fill="none">
  <path d="M54.1617 0.436686C54.7941 -0.0984957 55.7405 -0.0197266 56.2757 0.612623L64.9971 10.9174C65.5322 11.5498 65.4535 12.4962 64.8211 13.0314C64.1888 13.5666 63.2423 13.4878 62.7071 12.8555L54.9548 3.69568L45.795 11.448C45.1627 11.9831 44.2162 11.9044 43.681 11.272C43.1458 10.6397 43.2246 9.6932 43.8569 9.15801L54.1617 0.436686ZM56.6256 1.70607C55.0211 20.9852 46.8722 32.4411 36.5626 43.7597C26.263 55.0675 13.9468 66.1329 3.30549 84.9409L0.694434 83.4636C11.553 64.2716 24.2367 52.837 34.3447 41.7396C44.4429 30.653 52.1095 19.7986 53.6359 1.45725L56.6256 1.70607Z" fill="white"/>
</svg>