<svg width="65" height="65" viewBox="0 0 65 65" fill="none" xmlns="http://www.w3.org/2000/svg">
<g id="Group">
<path id="Vector" d="M32.4463 0C14.5041 0 0 14.5041 0 32.4463C0 50.3884 14.5041 65 32.4463 65C50.3884 65 65 50.3884 65 32.4463C65 14.5041 50.3884 0 32.4463 0ZM32.4463 60.1653C17.1901 60.1653 4.83471 47.7025 4.83471 32.4463C4.83471 17.1901 17.1901 4.83471 32.4463 4.83471C47.7025 4.83471 60.1653 17.2975 60.1653 32.5537C60.1653 47.7025 47.7025 60.1653 32.4463 60.1653Z" fill="#39E53D"/>
<path id="Vector_2" d="M41.6861 22.4545L28.901 34.9173L23.0994 29.2231C22.1324 28.2562 20.6283 28.3636 19.6613 29.2231C18.6944 30.1901 18.8018 31.6942 19.6613 32.6611L26.5374 39.3223C27.182 39.9669 28.0415 40.2892 28.901 40.2892C29.7605 40.2892 30.62 39.9669 31.2646 39.3223L45.1241 26C46.0911 25.033 46.0911 23.5289 45.1241 22.562C44.1572 21.595 42.6531 21.595 41.6861 22.4545Z" fill="#39E53D"/>
</g>
</svg>
