<svg xmlns="http://www.w3.org/2000/svg" width="22" height="22" viewBox="0 0 22 22" fill="none">
  <path d="M11 22C17.0751 22 22 17.0751 22 11C22 4.92487 17.0751 0 11 0C4.92487 0 0 4.92487 0 11C0 17.0751 4.92487 22 11 22Z" fill="#FFDD67"/>
  <path d="M6.78328 10.8533C7.79581 10.8533 8.61662 10.0325 8.61662 9.01998C8.61662 8.00746 7.79581 7.18665 6.78328 7.18665C5.77076 7.18665 4.94995 8.00746 4.94995 9.01998C4.94995 10.0325 5.77076 10.8533 6.78328 10.8533Z" fill="#664E27"/>
  <path d="M15.2166 10.8533C16.2292 10.8533 17.05 10.0325 17.05 9.01998C17.05 8.00746 16.2292 7.18665 15.2166 7.18665C14.2041 7.18665 13.3833 8.00746 13.3833 9.01998C13.3833 10.0325 14.2041 10.8533 15.2166 10.8533Z" fill="#664E27"/>
  <path d="M7.69986 16.72C9.82652 14.96 12.1732 14.96 14.2999 16.72C14.5565 16.94 14.7765 16.5733 14.5932 16.2433C13.9332 14.9967 12.6499 13.86 10.9999 13.86C9.34986 13.86 8.02986 14.9967 7.40652 16.2433C7.22319 16.5733 7.44319 16.94 7.69986 16.72Z" fill="#664E27"/>
</svg>