<svg xmlns="http://www.w3.org/2000/svg" width="41" height="41" viewBox="0 0 41 41" fill="none">
  <path d="M20.4661 0C9.14876 0 0 9.14876 0 20.4661C0 31.7835 9.14876 41 20.4661 41C31.7835 41 41 31.7835 41 20.4661C41 9.14876 31.7835 0 20.4661 0ZM20.4661 37.9504C10.843 37.9504 3.04959 30.0893 3.04959 20.4661C3.04959 10.843 10.843 3.04959 20.4661 3.04959C30.0893 3.04959 37.9504 10.9107 37.9504 20.5339C37.9504 30.0893 30.0893 37.9504 20.4661 37.9504Z" fill="#4F35A0"/>
  <path d="M17.3706 26.2012V28.5302C17.3706 28.9419 17.5444 29.3369 17.8538 29.6281C18.1632 29.9193 18.5828 30.0828 19.0203 30.0828H22.3197C22.7572 30.0828 23.1769 29.9193 23.4863 29.6281C23.7957 29.3369 23.9694 28.9419 23.9694 28.5302V26.4238" stroke="#4F35A0" stroke-width="2" stroke-linecap="round" stroke-linejoin="round"/>
  <path d="M20.8638 7.56921V9.12188" stroke="#4F35A0" stroke-width="2" stroke-linecap="round" stroke-linejoin="round"/>
  <path d="M8.83057 19.2141H10.3832" stroke="#4F35A0" stroke-width="2" stroke-linecap="round" stroke-linejoin="round"/>
  <path d="M11.5479 11.0627L12.7123 12.2272" stroke="#4F35A0" stroke-width="2" stroke-linecap="round" stroke-linejoin="round"/>
  <path d="M32.5087 19.2141H30.5679" stroke="#4F35A0" stroke-width="2" stroke-linecap="round" stroke-linejoin="round"/>
  <path d="M29.7919 11.0627L28.6274 12.2272" stroke="#4F35A0" stroke-width="2" stroke-linecap="round" stroke-linejoin="round"/>
  <path d="M17.2107 26.2012H24.1289C25.3783 25.5782 26.427 24.6132 27.1541 23.4174C27.8811 22.2216 28.2571 20.8437 28.2384 19.4426C28.2031 17.4371 27.3943 15.5238 25.9825 14.1055C24.5707 12.6872 22.6661 11.8747 20.6698 11.8391C18.6728 11.8747 16.7675 12.6879 15.3556 14.1071C13.9437 15.5263 13.1355 17.4409 13.1012 19.4471C13.0834 20.8475 13.4597 22.2243 14.1867 23.4193C14.9138 24.6142 15.962 25.5785 17.2107 26.2012Z" stroke="#4F35A0" stroke-width="2" stroke-linecap="round" stroke-linejoin="round"/>
  <path d="M20.8638 30.0829V32.8" stroke="#4F35A0" stroke-width="2" stroke-linecap="round" stroke-linejoin="round"/>
  <path d="M20.8638 21.9314V26.2012" stroke="#4F35A0" stroke-width="2" stroke-linecap="round" stroke-linejoin="round"/>
  <path d="M18.1465 19.2141L20.6696 21.9313L23.1926 19.2141" stroke="#4F35A0" stroke-width="2" stroke-linecap="round" stroke-linejoin="round"/>
</svg>