<svg xmlns="http://www.w3.org/2000/svg" width="40" height="76" viewBox="0 0 40 76" fill="none">
  <path d="M30.1181 4.44102C31.7935 3.66009 33.2122 3.08749 34.2347 2.70319L37.6633 37.7375C36.9924 37.884 36.139 38.126 35.1559 38.5254C32.7925 39.4855 29.7122 41.3426 26.6324 44.9131C21.9383 50.3522 21.2754 57.0884 21.6996 62.7811C21.9125 65.6382 22.4037 68.2918 22.8314 70.4523C22.8891 70.7438 22.9452 71.0242 22.9992 71.2941C23.1479 72.0374 23.2807 72.7007 23.3864 73.2948C23.4539 73.6744 23.5058 74.0021 23.5423 74.2824C23.1733 74.2582 22.6422 74.1596 21.9516 73.936C20.1391 73.3491 17.6497 72.0398 15.0432 69.9464C9.84737 65.7733 4.37462 58.6388 2.90847 48.4069C0.422614 31.0535 8.58661 19.5424 17.4936 12.2787C21.9586 8.63733 26.5928 6.08429 30.1181 4.44102ZM24.0138 74.2626C24.0139 74.2627 24.0116 74.2634 24.0065 74.2646C24.0111 74.2631 24.0136 74.2625 24.0138 74.2626Z" fill="#E0E1E2" stroke="black" stroke-width="3"/>
</svg>