<svg xmlns="http://www.w3.org/2000/svg" width="39" height="77" viewBox="0 0 39 77" fill="none">
  <path d="M9.17283 2.22787C10.1453 2.72493 11.4903 3.45375 13.0667 4.41848C16.3838 6.44851 20.6998 9.50747 24.7248 13.6288C32.7541 21.85 39.5659 34.2081 35.1367 51.1723L35.1366 51.1726C32.5281 61.1718 26.286 67.6414 20.6522 71.2014C17.826 72.9873 15.2042 74.0077 13.3364 74.3871C12.6255 74.5315 12.0867 74.57 11.7168 74.5529C11.7847 74.2784 11.8732 73.9587 11.9829 73.5896C12.1553 73.0095 12.3626 72.3635 12.5949 71.6394C12.6785 71.3788 12.7653 71.1082 12.8549 70.8268C13.5235 68.728 14.3108 66.147 14.8445 63.3327C15.908 57.725 16.0088 50.9592 11.958 45.0255L9.17283 2.22787ZM9.17283 2.22787L1.81138 36.6483C2.46074 36.8696 3.28033 37.2063 4.21097 37.714C6.44928 38.935 9.29895 41.1285 11.9578 45.0252L9.17283 2.22787ZM11.2479 74.4801C11.248 74.48 11.2507 74.481 11.2553 74.483C11.2501 74.4812 11.2478 74.4802 11.2479 74.4801Z" fill="#E0E1E2" stroke="black" stroke-width="3"/>
</svg>