<svg xmlns="http://www.w3.org/2000/svg" width="137" height="93" viewBox="0 0 137 93" fill="none">
  <path d="M121.161 35.5993L121.161 35.6007C124.517 47.2886 128.982 57.9868 134.16 67.401C129.671 69.7899 124.773 71.8148 119.502 73.3244C109.987 76.0471 83.8468 80.4507 59.9526 84.1877C48.0341 86.0518 36.7162 87.7438 28.3774 88.97C24.2082 89.583 20.7841 90.0795 18.4025 90.4227C17.4023 90.5669 16.586 90.684 15.9756 90.7713L13.1189 80.7965L45.4412 71.5397C52.7075 69.4587 56.9231 61.8584 54.8425 54.5925C52.7619 47.3263 45.1565 43.1074 37.8902 45.1884L37.8901 45.1884L5.57319 54.4479L2.71651 44.4732C3.28061 44.2241 4.03516 43.8913 4.96004 43.484C7.16221 42.5142 10.33 41.1226 14.1915 39.4353C21.915 36.0607 32.4126 31.5041 43.5108 26.7759C65.7608 17.2964 90.2693 7.19463 99.7835 4.47206L99.7838 4.47199C105.039 2.9673 110.251 2.09251 115.308 1.73993C115.9 12.4657 117.821 23.9236 121.161 35.5993ZM88.5806 28.1767C80.027 30.6261 75.0816 39.5409 77.5313 48.0946C79.9807 56.6482 88.8957 61.593 97.4491 59.1437C106.003 56.6943 110.948 47.7793 108.498 39.2259C106.049 30.6723 97.134 25.7274 88.5806 28.1767Z" fill="#BDBEC0" stroke="black" stroke-width="3"/>
</svg>