<svg xmlns="http://www.w3.org/2000/svg" width="59" height="67" viewBox="0 0 59 67" fill="none">
  <path d="M19.2613 25.6441L19.8319 26.8646L21.1064 26.4277C31.794 22.7646 44.8874 26.5543 56.4355 36.1685C49.1572 42.2702 40.5423 48.0785 30.8947 53.1234L30.8943 53.1236C21.2406 58.1755 11.5607 61.9007 2.38525 64.3894C1.09067 49.4414 5.45256 36.5338 14.5501 29.8562L15.5888 29.0938L14.9918 27.952L14.856 27.6923C11.0953 20.4999 8.09186 13.8093 6.2725 8.81828C5.35906 6.31244 4.76526 4.29195 4.51112 2.87405C4.49172 2.76577 4.47468 2.66305 4.45983 2.56575C4.53102 2.63328 4.6054 2.70567 4.68297 2.78316C5.70179 3.80078 7.02146 5.44123 8.55727 7.62134C11.6162 11.9636 15.395 18.2487 19.1549 25.4438L19.1704 25.4735L19.1872 25.5024C19.2134 25.5475 19.2392 25.5969 19.2613 25.6441ZM4.40735 1.26646C4.40798 1.26745 4.40562 1.27935 4.3984 1.29917C4.40311 1.27537 4.40672 1.26546 4.40735 1.26646ZM3.45497 1.79232C3.4346 1.78695 3.4235 1.7821 3.42304 1.78102C3.42258 1.77994 3.43276 1.78262 3.45497 1.79232Z" fill="#E0E1E2" stroke="black" stroke-width="3"/>
</svg>