<svg width="216" height="235" viewBox="0 0 216 235" fill="none" xmlns="http://www.w3.org/2000/svg">
<path d="M10.4195 136.281L10.4196 136.281L70.4383 119.092C70.4387 119.092 70.439 119.092 70.4393 119.092C72.8044 118.419 75.2648 119.786 75.9397 122.143C76.6147 124.499 75.2506 126.962 72.8877 127.642C72.8875 127.643 72.8873 127.643 72.8872 127.643L12.8702 144.831C12.8696 144.831 12.869 144.831 12.8685 144.831C10.5039 145.504 8.04367 144.137 7.36585 141.786C6.68819 139.42 8.05367 136.959 10.4195 136.281Z" fill="#BDBEC0" stroke="black" stroke-width="3"/>
<path d="M151.161 100.599L151.161 100.601C154.517 112.289 158.982 122.987 164.16 132.401C159.671 134.79 154.773 136.815 149.502 138.324C139.987 141.047 113.847 145.451 89.9526 149.188C78.0341 151.052 66.7162 152.744 58.3774 153.97C54.2082 154.583 50.7841 155.08 48.4025 155.423C47.4023 155.567 46.586 155.684 45.9756 155.771L43.1189 145.797L75.4412 136.54C82.7075 134.459 86.9231 126.858 84.8425 119.592C82.7619 112.326 75.1565 108.107 67.8902 110.188L67.8901 110.188L35.5732 119.448L32.7165 109.473C33.2806 109.224 34.0352 108.891 34.96 108.484C37.1622 107.514 40.33 106.123 44.1915 104.435C51.915 101.061 62.4126 96.5041 73.5108 91.7759C95.7608 82.2964 120.269 72.1946 129.784 69.4721L129.784 69.472C135.039 67.9673 140.251 67.0925 145.308 66.7399C145.9 77.4657 147.821 88.9236 151.161 100.599ZM118.581 93.1767C110.027 95.6261 105.082 104.541 107.531 113.095C109.981 121.648 118.896 126.593 127.449 124.144C136.003 121.694 140.948 112.779 138.498 104.226C136.049 95.6723 127.134 90.7274 118.581 93.1767Z" fill="#BDBEC0" stroke="black" stroke-width="3"/>
</svg>
