<svg
                xmlns="http://www.w3.org/2000/svg"
                width="26"
                height="23"
                viewBox="0 0 26 23"
                fill="none"
              >
                <path
                  d="M13.2079 23C19.9873 23 25.4832 17.8513 25.4832 11.5C25.4832 5.14873 19.9873 0 13.2079 0C6.42845 0 0.932617 5.14873 0.932617 11.5C0.932617 17.8513 6.42845 23 13.2079 23Z"
                  fill="#FFDD67"
                />
                <path
                  d="M8.5023 11.1165C9.63221 11.1165 10.5482 10.2584 10.5482 9.19987C10.5482 8.14132 9.63221 7.2832 8.5023 7.2832C7.37239 7.2832 6.45642 8.14132 6.45642 9.19987C6.45642 10.2584 7.37239 11.1165 8.5023 11.1165Z"
                  fill="#664E27"
                />
                <path
                  d="M17.9134 11.1165C19.0433 11.1165 19.9593 10.2584 19.9593 9.19987C19.9593 8.14132 19.0433 7.2832 17.9134 7.2832C16.7835 7.2832 15.8676 8.14132 15.8676 9.19987C15.8676 10.2584 16.7835 11.1165 17.9134 11.1165Z"
                  fill="#664E27"
                />
                <path
                  d="M18.8135 16.1C18.1997 14.72 16.7267 13.8 13.2078 13.8C9.68888 13.8 8.21585 14.72 7.60209 16.1C7.27474 16.8284 7.72484 17.6334 7.72484 17.6334C7.88851 18.0934 8.62503 18.4 13.2078 18.4C17.7497 18.4 18.4862 18.0934 18.6908 17.6334C18.6908 17.6334 19.1409 16.8284 18.8135 16.1Z"
                  fill="#664E27"
                />
                <path
                  d="M17.2996 15.7167C17.3405 15.6017 17.2996 15.4867 17.2178 15.41C17.2178 15.41 16.3176 14.5667 13.2078 14.5667C10.139 14.5667 9.19792 15.41 9.19792 15.41C9.11609 15.4483 9.11609 15.6017 9.11609 15.7167L9.19792 15.9466C9.23884 16.0616 9.32068 16.1383 9.44343 16.1383H16.9723C17.0541 16.1383 17.1769 16.0616 17.2178 15.9466L17.2996 15.7167Z"
                  fill="white"
                />
              </svg>