<svg xmlns="http://www.w3.org/2000/svg" width="37" height="124" viewBox="0 0 37 124" fill="none">
  <path d="M0.00871995 2.74906C-0.043452 1.92228 0.584493 1.20974 1.41128 1.15757L14.8845 0.307391C15.7113 0.255214 16.4238 0.883166 16.476 1.70994C16.5281 2.53673 15.9002 3.24926 15.0734 3.30143L3.09723 4.05716L3.85295 16.0333C3.90512 16.8601 3.27717 17.5726 2.45039 17.6248C1.62361 17.677 0.911076 17.049 0.858908 16.2223L0.00871995 2.74906ZM2.4975 1.52925C48.1931 41.8002 41.2034 97.4598 22.9599 123.692L20.497 121.979C38.01 96.7972 44.8915 42.8893 0.513984 3.77995L2.4975 1.52925Z" fill="white"/>
</svg>