<svg xmlns="http://www.w3.org/2000/svg" width="180" height="180" viewBox="0 0 180 180" fill="none">
<circle cx="90" cy="90" r="87.5" fill="url(#paint0_linear_156_570)" stroke="#28982A" stroke-width="5"/>
<path d="M123.921 58.3335L123.914 58.3402L123.906 58.3473L74.0717 106.433L58.5744 91.2228C58.5739 91.2222 58.5733 91.2217 58.5727 91.2211C55.712 88.3622 51.3001 88.7114 48.4974 91.2027L48.4864 91.2124L48.476 91.2228C45.6153 94.0835 45.9641 98.4966 48.4559 101.3L48.4683 101.314L48.4817 101.327L67.2586 119.517C67.2596 119.518 67.2606 119.519 67.2615 119.52C69.122 121.379 71.5985 122.305 74.0687 122.305C76.5402 122.305 79.018 121.378 80.8788 119.517L80.8824 119.513L132.433 66.8872C132.434 66.8865 132.434 66.8859 132.435 66.8852C133.781 65.5392 135.458 63.4649 136.468 61.3695C136.972 60.3218 137.326 59.2367 137.367 58.2155C137.408 57.1808 137.125 56.1967 136.346 55.4177C135.57 54.6412 134.534 54.3204 133.431 54.2858C132.333 54.2513 131.133 54.4982 129.963 54.8947C127.625 55.6868 125.292 57.115 123.921 58.3335Z" fill="#337C34" stroke="#337C34"/>
<defs>
<linearGradient id="paint0_linear_156_570" x1="180.989" y1="89.011" x2="0" y2="89.011" gradientUnits="userSpaceOnUse">
<stop stop-color="#39E53D"/>
<stop offset="1" stop-color="#27922A"/>
</linearGradient>
</defs>
</svg>