<svg width="65" height="65" viewBox="0 0 65 65" fill="none" xmlns="http://www.w3.org/2000/svg">
<path d="M32.4463 0C14.5041 0 0 14.5041 0 32.4463C0 50.3884 14.5041 65 32.4463 65C50.3884 65 65 50.3884 65 32.4463C65 14.5041 50.3884 0 32.4463 0ZM32.4463 60.1653C17.1901 60.1653 4.83471 47.7025 4.83471 32.4463C4.83471 17.1901 17.1901 4.83471 32.4463 4.83471C47.7025 4.83471 60.1653 17.2975 60.1653 32.5537C60.1653 47.7025 47.7025 60.1653 32.4463 60.1653Z" fill="#C3073F"/>
<path d="M42.331 22.4546C41.364 21.4876 39.8599 21.4876 38.893 22.4546L32.4467 29.0083L25.893 22.4546C24.926 21.4876 23.4219 21.4876 22.4549 22.4546C21.488 23.4215 21.488 24.9256 22.4549 25.8926L29.0087 32.4463L22.4549 39C21.488 39.967 21.488 41.4711 22.4549 42.438C22.8847 42.8678 23.5293 43.1901 24.1739 43.1901C24.8186 43.1901 25.4632 42.9752 25.893 42.438L32.4467 35.8843L39.0004 42.438C39.4301 42.8678 40.0748 43.1901 40.7194 43.1901C41.364 43.1901 42.0087 42.9752 42.4384 42.438C43.4054 41.4711 43.4054 39.967 42.4384 39L35.8847 32.4463L42.4384 25.8926C43.2979 24.9256 43.2979 23.4215 42.331 22.4546Z" fill="#C3073F"/>
</svg>
