<svg width="65" height="65" viewBox="0 0 65 65" fill="none" xmlns="http://www.w3.org/2000/svg">
<g id="Group 48">
<path id="Vector" d="M24.4039 1.56082L24.4039 1.56097L24.416 1.55758C27.0519 0.818306 29.7992 0.5 32.4463 0.5C34.9801 0.5 37.5192 0.816873 40.2797 1.45467C48.7354 3.57342 56.0338 9.18643 60.3724 16.7074C63.0219 21.6994 64.5 27.2126 64.5 32.5V33.2445C64.2867 39.1848 62.5919 44.9031 59.424 49.7686L59.4225 49.7708C54.2393 57.8234 45.8866 63.1194 36.3704 64.2873C35.0828 64.3947 33.709 64.5 32.4463 64.5C30.8572 64.5 29.4886 64.3939 28.2311 64.184L28.2183 64.1818L28.2053 64.1804C18.9053 63.1218 10.5517 57.8287 5.47387 49.7768C2.40301 44.7908 0.606518 39.0687 0.5 33.2488V32.5C0.5 26.9898 1.87461 21.6936 4.62555 16.8186L4.62733 16.8154C8.85786 9.1878 16.0498 3.67928 24.4039 1.56082ZM52.6839 31.0386L52.7251 31.4934H53.1818H60.0579H60.59L60.5569 30.9622C60.3383 27.4593 59.4644 23.8466 57.9326 20.5587L57.798 20.2699H57.4793H50.6033H49.8422L50.1444 20.9684C51.5192 24.1463 52.3662 27.5381 52.6839 31.0386ZM4.33562 30.9632L4.30354 31.4934H4.83471H11.1736H11.6302L11.6715 31.0386C11.9902 27.5275 12.7324 24.1377 14.1035 20.9684L14.4057 20.2699H13.6446H7.41322H7.09457L6.96 20.5587C5.42885 23.8452 4.55422 27.3504 4.33562 30.9632ZM19.0165 20.2699H18.712L18.5723 20.5405C16.9289 23.7229 15.9453 27.2303 15.6176 30.9495L15.5697 31.4934H16.1157H29.9752H30.4752V30.9934V20.7699V20.2699H29.9752H19.0165ZM42.3306 16.4272H43.2501L42.7503 15.6554C40.1598 11.6552 37.6532 8.5886 35.1184 6.60153L34.3099 5.96776V6.99503V15.9272V16.4272H34.8099H42.3306ZM30.5826 6.88742V5.91036L29.7902 6.48188C27.0371 8.46736 24.3118 11.5344 21.6069 15.6527L21.0982 16.4272H22.0248H30.0826H30.5826V15.9272V6.88742ZM30.5826 35.8361V35.3361H30.0826H16.2231H15.6757L15.7252 35.8813C16.0536 39.5002 17.148 43.1185 18.9009 46.3008L19.0434 46.5596H19.3388H30.0826H30.5826V46.0596V35.8361ZM30.5826 50.9023V50.4023H30.0826H22.3471H21.3194L21.9537 51.2109C24.3432 54.2572 27.0656 56.8778 29.8012 58.7411L30.5826 59.2733V58.3278V50.9023ZM34.4174 58.3278V59.2012L35.1705 58.759C38.3503 56.8919 41.1942 54.2604 43.4878 51.0876L44.0611 50.2947H43.0826H34.9174H34.4174V50.7947V58.3278ZM34.4174 46.0596V46.5596H34.9174H45.876H46.1947L46.3293 46.2708C47.8604 42.9843 48.735 39.4791 48.9536 35.8663L48.9857 35.3361H48.4545H34.9174H34.4174V35.8361V46.0596ZM34.4174 30.9934V31.4934H34.9174H48.3471H48.8945L48.8451 30.9482C48.5166 27.3295 47.4229 23.7159 45.7831 20.5405L45.6434 20.2699H45.3388H34.9174H34.4174V20.7699V30.9934ZM54.5785 16.4272H55.568L54.981 15.6305C51.5865 11.0239 46.6627 7.51788 41.0838 5.76472L40.5723 6.58703C42.9025 9.02719 45.2442 12.2225 47.5948 16.1824L47.7401 16.4272H48.0248H54.5785ZM23.6757 6.69465L23.1469 5.87811C17.8971 7.7405 13.3035 11.1362 10.0212 15.5199L9.42248 16.3195H10.4215H16.2231H16.4997L16.6467 16.0853C19.0008 12.3339 21.3441 9.13618 23.6757 6.69465ZM4.94215 35.3361H4.378L4.44577 35.8962C4.88296 39.509 5.97669 43.0165 7.83754 46.3058L7.98112 46.5596H8.27273H13.8595H14.6206L14.3184 45.8611C12.9436 42.6831 12.0966 39.2914 11.7789 35.7909L11.7377 35.3361H11.281H4.94215ZM11.7107 50.4023H10.6134L11.3334 51.2304C14.2904 54.6311 18.1198 57.2599 22.3822 58.902L22.9158 58.0822C20.789 55.9518 18.6663 53.3992 16.9715 50.6406L16.8251 50.4023H16.5455H11.7107ZM42.738 57.7504L43.2752 58.574C47.2136 56.9303 50.7127 54.4106 53.5544 51.2358L54.3004 50.4023H53.1818H48.7769C48.6623 50.4023 48.5432 50.4324 48.4371 50.5033C48.3341 50.5721 48.2718 50.6601 48.2355 50.7328C48.2192 50.7654 48.2073 50.7966 48.1984 50.825C46.7226 53.3447 44.8325 55.7572 42.738 57.7504ZM56.6198 46.5596H56.9201L57.0612 46.2946C58.8041 43.0211 60.0113 39.513 60.3409 35.8813L60.3904 35.3361H59.843H53.1818H52.6967L52.682 35.821C52.5765 39.3112 51.8373 42.6974 50.5687 45.8742L50.295 46.5596H51.0331H56.6198Z" fill="#8A8888" stroke="black"/>
<g id="Group">
<path id="Vector_2" d="M32.983 17.2903L32.9858 17.2906C35.9537 17.5706 38.3461 20.275 38.3461 23.4629V24.3703H26.4955V23.0345C26.4955 21.4672 27.1664 19.9477 28.4124 18.815C29.6567 17.6837 31.292 17.1212 32.983 17.2903ZM48.2804 32.5237C48.3415 28.7323 45.6641 25.575 42.0998 24.6568V23.4629C42.0998 18.3288 38.25 13.9323 33.3209 13.541C30.6043 13.2834 27.8989 14.2537 25.9051 16.0546C23.9056 17.8606 22.7417 20.4421 22.7417 23.0957V24.6507C19.1628 25.5215 16.5 28.7507 16.5 32.6419V43.718C16.5 48.0356 20.031 51.5 24.282 51.5H40.4371C44.7521 51.5 48.2804 47.9717 48.2804 43.6568V32.5237ZM44.5878 43.718C44.5878 45.9508 42.7311 47.8075 40.4983 47.8075H24.3432C22.1104 47.8075 20.3149 46.012 20.3149 43.7792V32.6419C20.3149 30.1644 22.294 28.1853 24.7716 28.1853H40.07C42.5638 28.1853 44.5878 30.1803 44.5878 32.5195V43.718Z" fill="white" stroke="black"/>
<path id="Vector_3" d="M32.4209 33.5494C31.4246 33.5494 30.5134 34.3712 30.5134 35.4568V41.8822C30.5134 42.8784 31.3353 43.7896 32.4209 43.7896C33.4172 43.7896 34.3283 42.9678 34.3283 41.8822V35.3956C34.3283 34.357 33.4024 33.5494 32.4209 33.5494Z" fill="white" stroke="black"/>
</g>
</g>
</svg>
