<svg width="21" height="23" viewBox="0 0 21 23" fill="none" xmlns="http://www.w3.org/2000/svg">
<path d="M14.6252 12.4125H11.2127V8.925C11.2127 8.475 10.8377 8.0625 10.3502 8.0625C9.9002 8.0625 9.4877 8.4375 9.4877 8.925V12.4125H9.3752C8.9252 12.4125 8.5127 12.7875 8.5127 13.275C8.5127 13.7625 8.8877 14.1375 9.3752 14.1375H9.4877V14.25C9.4877 14.7 9.8627 15.1125 10.3502 15.1125C10.8002 15.1125 11.2127 14.7375 11.2127 14.25V14.1375H14.6252C15.0752 14.1375 15.4877 13.7625 15.4877 13.275C15.4877 12.7875 15.0752 12.4125 14.6252 12.4125Z" fill="white"/>
<path d="M20.6625 6.525C20.6625 4.4625 19.0125 2.8125 16.95 2.8125C15.975 2.8125 15.075 3.1875 14.4 3.825C13.3875 3.375 12.3375 3.075 11.175 3V1.725H12.225C12.675 1.725 13.0875 1.35 13.0875 0.8625C13.0875 0.375 12.7125 0 12.225 0H8.4375C7.9875 0 7.575 0.375 7.575 0.8625C7.575 1.35 7.95 1.725 8.4375 1.725H9.4875V3.0375C8.3625 3.15 7.275 3.4125 6.2625 3.8625C5.5875 3.225 4.6875 2.85 3.7125 2.85C1.65 2.85 0 4.5 0 6.5625C0 7.575 0.4125 8.55 1.1625 9.225C0.7125 10.35 0.45 11.5875 0.45 12.8625C0.45 18.3 4.875 22.725 10.3125 22.725C15.75 22.725 20.175 18.3 20.175 12.8625C20.175 11.5875 19.9125 10.35 19.4625 9.225C20.25 8.5125 20.6625 7.5375 20.6625 6.525ZM16.95 4.5C18.075 4.5 18.975 5.4 18.975 6.525C18.975 6.9 18.8625 7.275 18.675 7.575C17.9625 6.45 17.0625 5.5125 15.975 4.7625C16.275 4.575 16.6125 4.5 16.95 4.5ZM1.725 6.525C1.725 5.4 2.625 4.5 3.75 4.5C4.0875 4.5 4.425 4.575 4.725 4.7625C3.6375 5.5125 2.7375 6.4875 2.025 7.575C1.8375 7.2375 1.725 6.9 1.725 6.525ZM10.35 21.0375C5.85 21.0375 2.175 17.3625 2.175 12.8625C2.175 8.3625 5.85 4.6875 10.35 4.6875C14.85 4.6875 18.525 8.3625 18.525 12.8625C18.525 17.3625 14.85 21.0375 10.35 21.0375Z" fill="#D47777"/>
</svg>
