<svg width="30" height="26" viewBox="0 0 30 26" fill="none" xmlns="http://www.w3.org/2000/svg">
<path d="M14.7266 26C14.3203 26 13.9141 25.8477 13.6094 25.5938C12.4414 24.5781 11.2734 23.6133 10.2578 22.75C7.31251 20.2617 4.72265 18.0781 2.94531 15.9453C0.914068 13.5078 0 11.2734 0 8.78516C0 6.39844 0.812503 4.16407 2.33594 2.53907C3.85937 0.914068 5.94141 5.25798e-06 8.22656 5.25798e-06C9.90234 5.25798e-06 11.4766 0.558599 12.8477 1.57422C13.4062 1.98047 13.8633 2.48829 14.3203 3.04688C14.5234 3.30079 14.8789 3.30079 15.082 3.04688C15.5391 2.48829 16.0469 2.03126 16.5547 1.57422C17.9258 0.507818 19.5 5.25798e-06 21.1758 5.25798e-06C23.4609 5.25798e-06 25.543 0.914068 27.0664 2.53907C28.5898 4.16407 29.4023 6.39844 29.4023 8.78516C29.4023 11.2734 28.4883 13.5078 26.457 15.8945C24.6797 18.0273 22.0898 20.2109 19.1445 22.6992C18.1289 23.5625 16.9609 24.5273 15.793 25.543C15.5391 25.8477 15.1328 26 14.7266 26Z" fill="#C3073F"/>
<path d="M10.528 18V16.32L14.848 12.24C15.1893 11.9307 15.44 11.6533 15.6 11.408C15.76 11.1627 15.8667 10.9387 15.92 10.736C15.984 10.5333 16.016 10.3467 16.016 10.176C16.016 9.728 15.8613 9.38667 15.552 9.152C15.2533 8.90667 14.8107 8.784 14.224 8.784C13.7547 8.784 13.3173 8.87467 12.912 9.056C12.5173 9.23733 12.1813 9.52 11.904 9.904L10.016 8.688C10.4427 8.048 11.04 7.54133 11.808 7.168C12.576 6.79467 13.4613 6.608 14.464 6.608C15.296 6.608 16.0213 6.74667 16.64 7.024C17.2693 7.29067 17.7547 7.66933 18.096 8.16C18.448 8.65067 18.624 9.23733 18.624 9.92C18.624 10.2827 18.576 10.6453 18.48 11.008C18.3947 11.36 18.2133 11.7333 17.936 12.128C17.6693 12.5227 17.2747 12.9653 16.752 13.456L13.168 16.832L12.672 15.888H18.992V18H10.528Z" fill="white"/>
</svg>
