<svg width="59" height="57" viewBox="0 0 59 57" fill="none" xmlns="http://www.w3.org/2000/svg">
<rect y="7.91666" width="59" height="49.0833" rx="12" fill="#242469"/>
<rect width="59" height="49.0833" rx="12" fill="#4F35A0"/>
<path d="M21.5588 24.3375C21.6713 24.3375 21.8213 24.3 21.9338 24.2625L26.0963 22.8C26.5463 22.65 26.7713 22.1625 26.6213 21.7125C26.4713 21.2625 25.9838 21.0375 25.5338 21.1875L22.9463 22.0875C24.1838 18.8625 27.3338 16.6875 30.9338 16.6875C34.8713 16.6875 38.2838 19.3125 39.2588 23.0625C39.3713 23.5125 39.8213 23.775 40.2713 23.6625C40.7213 23.55 40.9838 23.1 40.8713 22.65C39.7088 18.15 35.6213 15 30.8963 15C26.6963 15 22.9838 17.475 21.4463 21.1875L20.6588 18.9375C20.5088 18.4875 20.0213 18.2625 19.5713 18.4125C19.1213 18.5625 18.8963 19.05 19.0463 19.5L20.4713 23.5875C20.6963 24.075 21.1088 24.3375 21.5588 24.3375Z" fill="white"/>
<path d="M41.6965 32.1L40.159 28.0875C40.0465 27.825 39.859 27.6 39.5965 27.4875C39.334 27.375 39.034 27.375 38.7715 27.4875L34.6465 29.0625C34.1965 29.2125 34.009 29.7 34.159 30.15C34.309 30.6 34.7965 30.7875 35.2465 30.6375L37.834 29.6625C36.334 32.4 33.409 34.2 30.1465 34.2C26.434 34.2 23.1715 31.875 22.009 28.425C21.859 27.975 21.3715 27.75 20.959 27.9C20.509 28.05 20.284 28.5375 20.434 28.95C21.8215 33.075 25.7215 35.85 30.1465 35.85C34.009 35.85 37.4965 33.7125 39.259 30.4125L40.1215 32.7C40.234 33.0375 40.5715 33.225 40.909 33.225C41.0215 33.225 41.0965 33.225 41.209 33.15C41.659 33.0375 41.8465 32.55 41.6965 32.1Z" fill="white"/>
</svg>
