<svg width="354" height="354" viewBox="0 0 354 354" fill="none" xmlns="http://www.w3.org/2000/svg">
<path d="M170.887 279.716L170.887 279.716L170.887 199.354C170.887 199.353 170.887 199.353 170.887 199.353C170.892 195.95 173.648 193.197 177.042 193.197C180.435 193.197 183.192 195.95 183.196 199.353C183.196 199.353 183.196 199.353 183.196 199.354L183.196 279.714C183.196 279.715 183.196 279.715 183.196 279.716C183.191 283.118 180.434 285.872 177.045 285.876C173.64 285.875 170.886 283.121 170.887 279.716Z" fill="#BDBEC0" stroke="black" stroke-width="3"/>
<path d="M124.853 189.238C124.964 189.189 125.071 189.142 125.174 189.098L132.272 234.808C131.397 235.029 130.205 235.413 128.807 236.075C125.898 237.453 122.129 240.021 118.474 244.777C112.939 251.976 112.567 260.543 113.52 267.78C113.997 271.409 114.816 274.763 115.522 277.505C115.616 277.873 115.709 278.227 115.797 278.569C116.043 279.516 116.263 280.365 116.444 281.126C116.612 281.835 116.732 282.417 116.802 282.883C116.79 282.884 116.778 282.886 116.765 282.888C116.241 282.959 115.353 282.894 114.118 282.57C111.685 281.932 108.344 280.404 104.809 277.879C97.756 272.842 90.1294 263.983 87.476 250.814C82.9809 228.501 92.733 212.971 103.725 202.921C109.232 197.886 115.034 194.249 119.466 191.869C121.68 190.681 123.546 189.81 124.853 189.238ZM117.077 282.812C117.079 282.813 117.07 282.818 117.048 282.827C117.064 282.816 117.076 282.811 117.077 282.812Z" fill="#E0E1E2" stroke="black" stroke-width="3"/>
<path d="M228.914 189.103C229.017 189.147 229.124 189.194 229.235 189.243C230.542 189.815 232.407 190.686 234.621 191.874C239.053 194.253 244.854 197.89 250.36 202.925C261.35 212.973 271.099 228.503 266.601 250.819L266.601 250.82C263.95 263.986 256.324 272.842 249.271 277.878C245.735 280.402 242.393 281.931 239.96 282.57C238.724 282.894 237.835 282.96 237.311 282.89C237.299 282.888 237.287 282.886 237.276 282.885C237.346 282.418 237.466 281.836 237.634 281.128C237.814 280.365 238.035 279.513 238.282 278.564C238.37 278.224 238.461 277.871 238.555 277.505C239.261 274.763 240.08 271.409 240.558 267.781C241.51 260.545 241.139 251.981 235.603 244.782L228.914 189.103ZM228.914 189.103L221.81 234.808C222.685 235.029 223.875 235.413 225.272 236.076C228.178 237.454 231.945 240.024 235.603 244.782L228.914 189.103ZM236.998 282.814C236.999 282.813 237.011 282.817 237.028 282.829C237.005 282.82 236.996 282.815 236.998 282.814Z" fill="#E0E1E2" stroke="black" stroke-width="3"/>
<path d="M180.59 38.6976L180.531 40.0436L181.863 40.247C196.569 42.4934 209.437 54.9709 216.881 73.1649C204.779 75.8599 191.281 77.3921 177.041 77.3928L177.04 77.3928C162.788 77.3977 149.319 75.8272 137.207 73.1185C144.652 54.9561 157.518 42.4888 172.209 40.2474L173.483 40.0531V38.7646L173.483 38.576L173.483 38.3874C173.483 27.9274 174.048 18.4843 174.952 11.682C175.406 8.27 175.938 5.58266 176.505 3.77874C176.694 3.17549 176.876 2.70963 177.041 2.36504C177.206 2.70941 177.388 3.1749 177.577 3.77765C178.143 5.58107 178.674 8.26785 179.127 11.6795C180.029 18.4811 180.592 27.9241 180.589 38.3867L180.589 38.4202L180.59 38.4536C180.594 38.5334 180.594 38.6179 180.59 38.6976ZM177.447 1.71591C177.447 1.71678 177.44 1.72338 177.427 1.73311C177.44 1.7199 177.446 1.71504 177.447 1.71591ZM176.655 1.73304C176.642 1.72331 176.636 1.7167 176.636 1.71584C176.636 1.71497 176.642 1.71983 176.655 1.73304Z" fill="#E0E1E2" stroke="black" stroke-width="3"/>
<path d="M177.041 92.4804L177.043 92.4804C192.828 92.47 207.764 90.7023 221.33 87.5777C222.758 94.1338 223.567 101.086 223.567 108.332C223.564 121.105 219.744 155.046 215.902 185.925C213.985 201.336 212.068 215.942 210.629 226.696C209.91 232.073 209.311 236.487 208.892 239.556C208.686 241.06 208.524 242.242 208.412 243.055L194.25 243.055L194.25 199.347C194.25 189.855 186.532 182.138 177.041 182.138C167.55 182.138 159.827 189.861 159.827 199.352V199.352L159.833 243.055L145.671 243.055C145.558 242.241 145.396 241.06 145.19 239.556C144.771 236.486 144.171 232.073 143.452 226.696C142.013 215.942 140.094 201.336 138.176 185.925C134.333 155.045 130.513 121.104 130.516 108.333L130.516 108.332C130.516 101.108 131.319 94.1724 132.738 87.637C146.3 90.7588 161.275 92.4751 177.041 92.4804ZM156.741 130.597C156.74 141.811 165.826 150.897 177.041 150.897C188.256 150.898 197.342 141.811 197.342 130.597C197.342 119.382 188.256 110.296 177.041 110.296C165.826 110.296 156.741 119.382 156.741 130.597Z" fill="#BDBEC0" stroke="black" stroke-width="3"/>
</svg>
