<svg width="177" height="53" viewBox="0 0 177 53" fill="none" xmlns="http://www.w3.org/2000/svg">
<path d="M51.7236 19.6019L51.724 19.6019C52.0894 19.6581 52.3459 19.9208 52.4516 20.2865C52.5594 20.6593 52.4853 21.0644 52.256 21.3281L40.2817 33.6617L40.1063 33.8424L40.1471 34.0909L42.9827 51.3702L42.986 51.3905L42.991 51.4105C43.0697 51.725 42.9353 52.0318 42.6575 52.2323C42.3782 52.4339 42.0133 52.4816 41.7039 52.3135C41.7036 52.3133 41.7033 52.3131 41.703 52.313L26.8859 44.1769L26.646 44.0452L26.4058 44.1763L11.4959 52.3131L11.4765 52.3237L11.4581 52.3359C11.0926 52.5795 10.752 52.527 10.5031 52.3405C10.2378 52.1415 10.0633 51.7761 10.1254 51.3676C10.1255 51.3668 10.1256 51.366 10.1257 51.3653L12.9606 34.0909L13.0014 33.8424L12.8259 33.6617L0.843108 21.3193L0.831328 21.3072L0.818756 21.2959C0.207869 20.7464 0.532886 19.7194 1.29124 19.6021C1.29154 19.602 1.29184 19.602 1.29213 19.6019L17.7552 17.1337L18.0187 17.0942L18.1328 16.8535L25.631 1.04227C25.9965 0.319093 26.9287 0.319243 27.2939 1.04272L34.7923 16.7631L34.9061 17.0016L35.1672 17.042L51.7236 19.6019Z" fill="url(#paint0_linear_151_465)" stroke="#DDAC17"/>
<path d="M113.724 19.6019L113.724 19.6019C114.089 19.6581 114.346 19.9208 114.452 20.2865C114.559 20.6593 114.485 21.0644 114.256 21.3281L102.282 33.6617L102.106 33.8424L102.147 34.0909L104.983 51.3702L104.986 51.3905L104.991 51.4105C105.07 51.725 104.935 52.0318 104.657 52.2323C104.378 52.4339 104.013 52.4816 103.704 52.3135C103.704 52.3133 103.703 52.3131 103.703 52.313L88.8859 44.1769L88.646 44.0452L88.4058 44.1763L73.4959 52.3131L73.4765 52.3237L73.4581 52.3359C73.0926 52.5795 72.752 52.527 72.5031 52.3405C72.2378 52.1415 72.0633 51.7761 72.1254 51.3676C72.1255 51.3668 72.1256 51.366 72.1257 51.3653L74.9606 34.0909L75.0014 33.8424L74.8259 33.6617L62.8431 21.3193L62.8313 21.3072L62.8188 21.2959C62.2079 20.7464 62.5329 19.7194 63.2912 19.6021C63.2915 19.602 63.2918 19.602 63.2921 19.6019L79.7552 17.1337L80.0187 17.0942L80.1328 16.8535L87.631 1.04227C87.9965 0.319093 88.9287 0.319243 89.2939 1.04272L96.7923 16.7631L96.9061 17.0016L97.1672 17.042L113.724 19.6019Z" fill="url(#paint1_linear_151_465)" stroke="#DDAC17"/>
<path d="M175.724 19.6019L175.724 19.6019C176.089 19.6581 176.346 19.9208 176.452 20.2865C176.559 20.6593 176.485 21.0644 176.256 21.3281L164.282 33.6617L164.106 33.8424L164.147 34.0909L166.983 51.3702L166.986 51.3905L166.991 51.4105C167.07 51.725 166.935 52.0318 166.657 52.2323C166.378 52.4339 166.013 52.4816 165.704 52.3135C165.704 52.3133 165.703 52.3131 165.703 52.313L150.886 44.1769L150.646 44.0452L150.406 44.1763L135.496 52.3131L135.477 52.3237L135.458 52.3359C135.093 52.5795 134.752 52.527 134.503 52.3405C134.238 52.1415 134.063 51.7761 134.125 51.3676C134.125 51.3668 134.126 51.366 134.126 51.3653L136.961 34.0909L137.001 33.8424L136.826 33.6617L124.843 21.3193L124.831 21.3072L124.819 21.2959C124.208 20.7464 124.533 19.7194 125.291 19.6021C125.292 19.602 125.292 19.602 125.292 19.6019L141.755 17.1337L142.019 17.0942L142.133 16.8535L149.631 1.04227C149.996 0.319093 150.929 0.319243 151.294 1.04272L158.792 16.7631L158.906 17.0016L159.167 17.042L175.724 19.6019Z" fill="url(#paint2_linear_151_465)" stroke="#DDAC17"/>
<defs>
<linearGradient id="paint0_linear_151_465" x1="-28.0513" y1="32.9128" x2="84.154" y2="32.9128" gradientUnits="userSpaceOnUse">
<stop stop-color="#FFF98A"/>
<stop offset="0.9999" stop-color="#ECC440"/>
<stop offset="1" stop-color="#ECC440" stop-opacity="0"/>
</linearGradient>
<linearGradient id="paint1_linear_151_465" x1="33.9487" y1="32.9128" x2="146.154" y2="32.9128" gradientUnits="userSpaceOnUse">
<stop stop-color="#FFF98A"/>
<stop offset="0.9999" stop-color="#ECC440"/>
<stop offset="1" stop-color="#ECC440" stop-opacity="0"/>
</linearGradient>
<linearGradient id="paint2_linear_151_465" x1="95.9487" y1="32.9128" x2="208.154" y2="32.9128" gradientUnits="userSpaceOnUse">
<stop stop-color="#FFF98A"/>
<stop offset="0.9999" stop-color="#ECC440"/>
<stop offset="1" stop-color="#ECC440" stop-opacity="0"/>
</linearGradient>
</defs>
</svg>
